<?xml version="1.0" encoding="UTF-8"?>
<svg id="layer1" xmlns="http://www.w3.org/2000/svg" viewBox="0 0 21.52 26.21">
  <defs>
    <style>
      .cls-1 {
        fill: #fcfcf5;
        stroke-width: 0px;
      }
    </style>
  </defs>
  <g id="group">
    <path id="path" class="cls-1" d="M6.56,6.88c.08-.29.04-.67.13-.97.25-.84.29-1.76.34-2.64.04-.38.11-.6.11-.97,0-.08-.03-.33-.03-.41-.04-1.05-1.27-1.6-2.19-1.85-.17,0-.34-.04-.5-.04-.21,0-.42.04-.59.13-.5.29-1.05.5-1.13,1.01-.13.55-.08,1.13-.21,1.68-.17.8-.21,1.93-.34,2.73-.29,1.43-.67,2.9-.84,4.32v1.09c-.04.5-.17.92-.21,1.43-.08.71-.13,2.06-.21,2.81-.38,2.73-.8,5.41-.88,8.18v.08c0,1.26,1.05,2.69,2.43,2.73h.08c.34,0,.76-.17,1.01-.34,1.55-.76,1.1-2.43,1.1-3.82,0-.55.13-1.22.17-1.8.13-.5.04-.88.13-1.34.04-.38.17-.75.21-1.13.04-.34.08-.71.08-1.05v-1.05c.13-1.3.42-2.64.46-3.95.08-.25.34-.67.34-.97.13-.8.21-1.68.34-2.48.04-.5.08-.92.21-1.38Z"/>
    <path id="path2" class="cls-1" d="M18.09,13.07c1.35-.86,2-1.96,2.29-2.46.58-1,.78-1.88.89-2.35.16-.73.46-2.16-.01-3.86-.12-.44-.42-1.46-1.25-2.45-.51-.61-1.19-1.1-1.48-1.28-.25-.16-.48-.27-.65-.35-.05-.02-.07-.05-.12-.08-.07-.04-.25-.13-.6-.13-.13,0-.49,0-.84.16-.45.21-.66.61-.86.95-.36.59-.86,1.08-1.25,1.66-.65.95-1.11,1.3-2.74,3.07-1.3,1.41-2.31,2.71-3.57,4.2-.46.55-1.89,1.89-1.89,2.9v.04c.08,1.09.38,1.89,1.05,2.64.55.8,1.05,1.64,1.59,2.43.29.46.71.88,1.01,1.38.84,1.39,1.85,2.56,2.85,3.9.46.63.76,1.38,1.34,2.01.5.46,1.34.76,2.1.76.36,0,.59-.04.71-.08.09-.03.58-.19.93-.61.6-.74.35-1.75.31-1.9-.14-.52-.34-.58-1.38-1.88-.51-.64-.85-1.07-1.23-1.69-.49-.79-.38-.82-.81-1.5-.58-.92-.79-.89-1.5-1.94-.15-.22-.25-.38-.33-.51-.14-.24-.16-.33-.28-.5-.13-.2-.24-.3-.38-.45-.17-.17-.44-.51-.98-1.18-.1-.12-.24-.3-.41-.51.42.15,1.01.33,1.73.46.68.13,1.59.29,2.71.17.5-.06,1.73-.21,3.03-1.04ZM12.2,10.79c-.08-.05-.15-.1-.22-.16-.02-.02-.03-.03-.04-.05-.15-.29.38-.81.45-.88.7-.68.78-.83,1.02-1.11.45-.52.38-.59,1.03-1.43.19-.24.35-.43.67-.81.45-.53.61-.66.79-.89.07-.09.11-.14.17-.22.38-.5.44-.47.67-.79.15-.22.33-.42.49-.64.02-.03.08-.1.17-.11.09,0,.16.05.21.09.4.37.54.72.54.72.21.52.46,1.13.47,2,0,.5-.07.91-.12,1.16-.03.15-.07.3-.13.46-.11.35-.37,1.08-1.04,1.77-.6.61-1.23.88-1.52,1-.33.14-1.04.42-1.98.35-.32-.02-.96-.07-1.62-.48Z"/>
  </g>
</svg>